<mxfile host="app.diagrams.net" modified="2020-11-21T11:12:42.760Z" agent="5.0 (X11; Linux x86_64) AppleWebKit/537.36 (KHTML, like Gecko) Chrome/86.0.4240.198 Safari/537.36" etag="33b5x0sSUJnc-zQ_-6xG" version="13.10.0" type="github">
  <diagram id="kgpKYQtTHZ0yAKxKKP6v" name="Page-1">
    <mxGraphModel dx="1350" dy="745" grid="1" gridSize="10" guides="1" tooltips="1" connect="1" arrows="1" fold="1" page="1" pageScale="1" pageWidth="850" pageHeight="1100" math="0" shadow="0">
      <root>
        <mxCell id="0" />
        <mxCell id="1" parent="0" />
        <mxCell id="Cy3uHaTTeSD2IJ_7kzdA-3" style="edgeStyle=orthogonalEdgeStyle;rounded=0;orthogonalLoop=1;jettySize=auto;html=1;" edge="1" parent="1" source="Cy3uHaTTeSD2IJ_7kzdA-1" target="Cy3uHaTTeSD2IJ_7kzdA-2">
          <mxGeometry relative="1" as="geometry" />
        </mxCell>
        <mxCell id="Cy3uHaTTeSD2IJ_7kzdA-1" value="" style="ellipse;fillColor=#000000;strokeColor=none;" vertex="1" parent="1">
          <mxGeometry x="140" y="140" width="30" height="30" as="geometry" />
        </mxCell>
        <mxCell id="Cy3uHaTTeSD2IJ_7kzdA-5" style="edgeStyle=orthogonalEdgeStyle;rounded=0;orthogonalLoop=1;jettySize=auto;html=1;" edge="1" parent="1" source="Cy3uHaTTeSD2IJ_7kzdA-2" target="Cy3uHaTTeSD2IJ_7kzdA-4">
          <mxGeometry relative="1" as="geometry" />
        </mxCell>
        <mxCell id="Cy3uHaTTeSD2IJ_7kzdA-2" value="OrderCreated" style="html=1;align=center;verticalAlign=top;rounded=1;absoluteArcSize=1;arcSize=10;dashed=0;" vertex="1" parent="1">
          <mxGeometry x="85" y="240" width="140" height="40" as="geometry" />
        </mxCell>
        <mxCell id="Cy3uHaTTeSD2IJ_7kzdA-7" style="edgeStyle=orthogonalEdgeStyle;rounded=0;orthogonalLoop=1;jettySize=auto;html=1;entryX=0;entryY=0.5;entryDx=0;entryDy=0;" edge="1" parent="1" source="Cy3uHaTTeSD2IJ_7kzdA-4" target="Cy3uHaTTeSD2IJ_7kzdA-6">
          <mxGeometry relative="1" as="geometry" />
        </mxCell>
        <mxCell id="Cy3uHaTTeSD2IJ_7kzdA-9" style="edgeStyle=orthogonalEdgeStyle;rounded=0;orthogonalLoop=1;jettySize=auto;html=1;" edge="1" parent="1" source="Cy3uHaTTeSD2IJ_7kzdA-4" target="Cy3uHaTTeSD2IJ_7kzdA-8">
          <mxGeometry relative="1" as="geometry" />
        </mxCell>
        <mxCell id="Cy3uHaTTeSD2IJ_7kzdA-4" value="OrderApproved" style="html=1;align=center;verticalAlign=top;rounded=1;absoluteArcSize=1;arcSize=10;dashed=0;" vertex="1" parent="1">
          <mxGeometry x="85" y="350" width="140" height="40" as="geometry" />
        </mxCell>
        <mxCell id="Cy3uHaTTeSD2IJ_7kzdA-6" value="OrderCancelled" style="html=1;align=center;verticalAlign=top;rounded=1;absoluteArcSize=1;arcSize=10;dashed=0;" vertex="1" parent="1">
          <mxGeometry x="380" y="350" width="140" height="40" as="geometry" />
        </mxCell>
        <mxCell id="Cy3uHaTTeSD2IJ_7kzdA-11" style="edgeStyle=orthogonalEdgeStyle;rounded=0;orthogonalLoop=1;jettySize=auto;html=1;" edge="1" parent="1" source="Cy3uHaTTeSD2IJ_7kzdA-8" target="Cy3uHaTTeSD2IJ_7kzdA-10">
          <mxGeometry relative="1" as="geometry" />
        </mxCell>
        <mxCell id="Cy3uHaTTeSD2IJ_7kzdA-8" value="OrderInvoiced" style="html=1;align=center;verticalAlign=top;rounded=1;absoluteArcSize=1;arcSize=10;dashed=0;" vertex="1" parent="1">
          <mxGeometry x="85" y="460" width="140" height="40" as="geometry" />
        </mxCell>
        <mxCell id="Cy3uHaTTeSD2IJ_7kzdA-13" style="edgeStyle=orthogonalEdgeStyle;rounded=0;orthogonalLoop=1;jettySize=auto;html=1;entryX=0;entryY=0.5;entryDx=0;entryDy=0;" edge="1" parent="1" source="Cy3uHaTTeSD2IJ_7kzdA-10" target="Cy3uHaTTeSD2IJ_7kzdA-12">
          <mxGeometry relative="1" as="geometry" />
        </mxCell>
        <mxCell id="Cy3uHaTTeSD2IJ_7kzdA-10" value="OrderShipped" style="html=1;align=center;verticalAlign=top;rounded=1;absoluteArcSize=1;arcSize=10;dashed=0;" vertex="1" parent="1">
          <mxGeometry x="85" y="570" width="140" height="40" as="geometry" />
        </mxCell>
        <mxCell id="Cy3uHaTTeSD2IJ_7kzdA-16" style="edgeStyle=orthogonalEdgeStyle;rounded=0;orthogonalLoop=1;jettySize=auto;html=1;entryX=0;entryY=0.5;entryDx=0;entryDy=0;" edge="1" parent="1" source="Cy3uHaTTeSD2IJ_7kzdA-12" target="Cy3uHaTTeSD2IJ_7kzdA-14">
          <mxGeometry relative="1" as="geometry" />
        </mxCell>
        <mxCell id="Cy3uHaTTeSD2IJ_7kzdA-12" value="OrderDelivered" style="html=1;align=center;verticalAlign=top;rounded=1;absoluteArcSize=1;arcSize=10;dashed=0;" vertex="1" parent="1">
          <mxGeometry x="380" y="570" width="140" height="40" as="geometry" />
        </mxCell>
        <mxCell id="Cy3uHaTTeSD2IJ_7kzdA-14" value="" style="ellipse;html=1;shape=endState;fillColor=#000000;strokeColor=#000000;" vertex="1" parent="1">
          <mxGeometry x="610" y="575" width="30" height="30" as="geometry" />
        </mxCell>
        <mxCell id="Cy3uHaTTeSD2IJ_7kzdA-17" value="Place Order" style="text;html=1;align=center;" vertex="1" parent="1">
          <mxGeometry x="100" y="190" width="200" height="25" as="geometry" />
        </mxCell>
        <mxCell id="Cy3uHaTTeSD2IJ_7kzdA-18" value="Payment Approved" style="text;html=1;align=center;" vertex="1" parent="1">
          <mxGeometry x="120" y="300" width="200" height="25" as="geometry" />
        </mxCell>
        <mxCell id="Cy3uHaTTeSD2IJ_7kzdA-19" value="Invoice Issued" style="text;html=1;align=center;" vertex="1" parent="1">
          <mxGeometry x="110" y="410" width="200" height="25" as="geometry" />
        </mxCell>
        <mxCell id="Cy3uHaTTeSD2IJ_7kzdA-20" value="Cancel Order" style="text;html=1;align=center;" vertex="1" parent="1">
          <mxGeometry x="200" y="340" width="200" height="25" as="geometry" />
        </mxCell>
        <mxCell id="Cy3uHaTTeSD2IJ_7kzdA-21" value="Ship Order" style="text;html=1;align=center;" vertex="1" parent="1">
          <mxGeometry x="100" y="520" width="200" height="25" as="geometry" />
        </mxCell>
        <mxCell id="Cy3uHaTTeSD2IJ_7kzdA-22" value="Deliver Order" style="text;html=1;align=center;" vertex="1" parent="1">
          <mxGeometry x="200" y="560" width="200" height="25" as="geometry" />
        </mxCell>
      </root>
    </mxGraphModel>
  </diagram>
</mxfile>
